<?xml version="1.0" encoding="UTF-8"?>
<svg xmlns="http://www.w3.org/2000/svg" xmlns:xlink="http://www.w3.org/1999/xlink" width="20px" height="20px" viewBox="0 0 20 20" version="1.1">
<g id="surface1">
<path style=" stroke:none;fill-rule:nonzero;fill:rgb(0%,0%,0%);fill-opacity:1;" d="M 17.078125 6.640625 L 9.128906 0.808594 C 7.863281 -0.121094 6.183594 -0.257812 4.78125 0.453125 C 3.382812 1.160156 2.5 2.597656 2.5 4.167969 L 2.5 15.832031 C 2.5 17.402344 3.382812 18.839844 4.785156 19.550781 C 6.183594 20.257812 7.863281 20.121094 9.128906 19.191406 L 17.082031 13.359375 C 18.152344 12.574219 18.785156 11.328125 18.785156 10 C 18.785156 8.671875 18.152344 7.425781 17.082031 6.640625 Z M 16.089844 12.015625 L 8.140625 17.847656 C 7.382812 18.402344 6.375 18.484375 5.535156 18.058594 C 4.695312 17.632812 4.167969 16.773438 4.167969 15.832031 L 4.167969 4.167969 C 4.15625 3.222656 4.6875 2.359375 5.535156 1.941406 C 5.886719 1.761719 6.277344 1.667969 6.671875 1.667969 C 7.203125 1.667969 7.71875 1.839844 8.140625 2.15625 L 16.089844 7.992188 C 16.734375 8.460938 17.113281 9.210938 17.113281 10.003906 C 17.113281 10.800781 16.734375 11.550781 16.089844 12.019531 Z M 16.089844 12.015625 "/>
</g>
</svg>
