<?xml version="1.0" encoding="UTF-8"?>
<svg xmlns="http://www.w3.org/2000/svg" xmlns:xlink="http://www.w3.org/1999/xlink" width="25px" height="25px" viewBox="0 0 25 25" version="1.1">
<g id="surface1">
<path style=" stroke:none;fill-rule:nonzero;fill:rgb(0%,0%,0%);fill-opacity:1;" d="M 22.941406 2.371094 C 21.625 1.277344 19.886719 0.828125 18.207031 1.144531 L 14.785156 1.863281 C 13.9375 2.015625 13.144531 2.398438 12.5 2.972656 C 11.867188 2.402344 11.089844 2.019531 10.253906 1.867188 L 6.753906 1.136719 C 5.082031 0.832031 3.363281 1.285156 2.058594 2.375 C 0.753906 3.460938 0 5.074219 0 6.769531 L 0 16.972656 C -0.00390625 19.730469 1.964844 22.101562 4.679688 22.605469 L 10.730469 23.800781 C 11.3125 23.90625 11.902344 23.957031 12.492188 23.957031 C 13.097656 23.957031 13.699219 23.902344 14.292969 23.792969 L 20.296875 22.605469 C 23.019531 22.109375 24.996094 19.738281 25 16.972656 L 25 6.769531 C 25 5.070312 24.246094 3.460938 22.941406 2.371094 Z M 10.9375 20.65625 L 5.261719 19.535156 C 4.023438 19.308594 3.125 18.230469 3.125 16.972656 L 3.125 6.769531 C 3.128906 5.335938 4.289062 4.175781 5.722656 4.167969 C 5.867188 4.167969 6.011719 4.179688 6.152344 4.207031 L 9.65625 4.933594 C 10.398438 5.070312 10.9375 5.714844 10.9375 6.472656 Z M 21.875 16.972656 C 21.871094 18.238281 20.960938 19.320312 19.714844 19.539062 L 14.0625 20.65625 L 14.0625 6.472656 C 14.066406 5.703125 14.625 5.046875 15.386719 4.925781 L 18.804688 4.210938 C 19.566406 4.074219 20.347656 4.277344 20.9375 4.773438 C 21.53125 5.265625 21.875 6 21.875 6.769531 Z M 21.875 16.972656 "/>
</g>
</svg>
