<?xml version="1.0" encoding="UTF-8"?>
<svg xmlns="http://www.w3.org/2000/svg" xmlns:xlink="http://www.w3.org/1999/xlink" width="20px" height="20px" viewBox="0 0 20 20" version="1.1">
<g id="surface1">
<path style=" stroke:none;fill-rule:nonzero;fill:rgb(0%,0%,0%);fill-opacity:1;" d="M 10 0 C 12.761719 0 15.261719 1.121094 17.070312 2.929688 C 18.878906 4.738281 20 7.238281 20 10 C 20 12.761719 18.878906 15.261719 17.070312 17.070312 C 15.261719 18.878906 12.761719 20 10 20 C 7.238281 20 4.738281 18.878906 2.929688 17.070312 C 1.121094 15.261719 0 12.761719 0 10 C 0 7.238281 1.121094 4.738281 2.929688 2.929688 C 4.738281 1.121094 7.238281 0 10 0 Z M 6.882812 6.425781 L 9.097656 6.425781 L 9.097656 13.578125 L 6.882812 13.578125 Z M 10.902344 6.425781 L 13.117188 6.425781 L 13.117188 13.578125 L 10.902344 13.578125 Z M 15.855469 4.144531 C 14.355469 2.644531 12.285156 1.71875 10 1.71875 C 7.714844 1.71875 5.640625 2.644531 4.144531 4.144531 C 2.644531 5.644531 1.71875 7.714844 1.71875 10 C 1.71875 12.285156 2.648438 14.359375 4.144531 15.855469 C 5.644531 17.355469 7.714844 18.28125 10 18.28125 C 12.285156 18.28125 14.359375 17.351562 15.855469 15.855469 C 17.355469 14.355469 18.28125 12.285156 18.28125 10 C 18.28125 7.714844 17.355469 5.640625 15.855469 4.144531 Z M 15.855469 4.144531 "/>
</g>
</svg>
