<svg width="77" height="38" viewBox="0 0 77 38" fill="none" xmlns="http://www.w3.org/2000/svg">
<line y1="27.5" x2="22" y2="27.5" stroke="#BCBDF1" stroke-width="5"/>
<line y1="2.5" x2="22" y2="2.5" stroke="#BCBDF1" stroke-width="5"/>
<line y1="14.5" x2="22" y2="14.5" stroke="#BCBDF1" stroke-width="5"/>
<path d="M37.4219 12.2031C39.2865 12.2031 40.7865 12.7135 41.9219 13.7344C43.0573 14.7448 43.625 16.3698 43.625 18.6094V30H38.8594V19.7969C38.8594 18.5469 38.6302 17.6042 38.1719 16.9688C37.724 16.3333 37.0156 16.0156 36.0469 16.0156C34.5885 16.0156 33.5938 16.5104 33.0625 17.5C32.5312 18.4896 32.2656 19.9167 32.2656 21.7812V30H27.5V12.5312H31.1406L31.7812 14.7656H32.0469C32.4219 14.1615 32.8854 13.6719 33.4375 13.2969C34 12.9219 34.6198 12.6458 35.2969 12.4688C35.9844 12.2917 36.6927 12.2031 37.4219 12.2031ZM53.6406 37.6875C51.2031 37.6875 49.3385 37.2604 48.0469 36.4062C46.7656 35.5625 46.125 34.375 46.125 32.8438C46.125 31.7917 46.4531 30.9115 47.1094 30.2031C47.7656 29.4948 48.7292 28.9896 50 28.6875C49.5104 28.4792 49.0833 28.1406 48.7188 27.6719C48.3542 27.1927 48.1719 26.6875 48.1719 26.1562C48.1719 25.4896 48.3646 24.9375 48.75 24.5C49.1354 24.0521 49.6927 23.6146 50.4219 23.1875C49.5052 22.7917 48.776 22.1562 48.2344 21.2812C47.7031 20.4062 47.4375 19.375 47.4375 18.1875C47.4375 16.9167 47.7135 15.8385 48.2656 14.9531C48.8281 14.0573 49.6406 13.375 50.7031 12.9062C51.776 12.4375 53.0781 12.2031 54.6094 12.2031C54.9323 12.2031 55.3073 12.224 55.7344 12.2656C56.1615 12.3073 56.5521 12.3542 56.9062 12.4062C57.2708 12.4583 57.5156 12.5 57.6406 12.5312H63.7344V14.9531L61 15.6562C61.25 16.0417 61.4375 16.4531 61.5625 16.8906C61.6875 17.3281 61.75 17.7917 61.75 18.2812C61.75 20.1562 61.0938 21.6198 59.7812 22.6719C58.4792 23.7135 56.6667 24.2344 54.3438 24.2344C53.7917 24.2031 53.2708 24.1615 52.7812 24.1094C52.5417 24.2969 52.3594 24.4948 52.2344 24.7031C52.1094 24.9115 52.0469 25.1302 52.0469 25.3594C52.0469 25.5885 52.1406 25.7812 52.3281 25.9375C52.526 26.0833 52.8177 26.1979 53.2031 26.2812C53.599 26.3542 54.0885 26.3906 54.6719 26.3906H57.6406C59.5573 26.3906 61.0156 26.8021 62.0156 27.625C63.026 28.4479 63.5312 29.6562 63.5312 31.25C63.5312 33.2917 62.6771 34.875 60.9688 36C59.2708 37.125 56.8281 37.6875 53.6406 37.6875ZM53.8438 34.5781C54.9792 34.5781 55.9531 34.4688 56.7656 34.25C57.5885 34.0417 58.2188 33.7396 58.6562 33.3438C59.0938 32.9583 59.3125 32.4948 59.3125 31.9531C59.3125 31.5156 59.1823 31.1667 58.9219 30.9062C58.6719 30.6562 58.2865 30.4792 57.7656 30.375C57.2552 30.2708 56.599 30.2188 55.7969 30.2188H53.3281C52.7448 30.2188 52.2188 30.3125 51.75 30.5C51.2917 30.6875 50.9271 30.9479 50.6562 31.2812C50.3854 31.625 50.25 32.0208 50.25 32.4688C50.25 33.125 50.5625 33.6406 51.1875 34.0156C51.8229 34.3906 52.7083 34.5781 53.8438 34.5781ZM54.6094 21.3281C55.5052 21.3281 56.1615 21.0521 56.5781 20.5C56.9948 19.9479 57.2031 19.1979 57.2031 18.25C57.2031 17.1979 56.9844 16.4115 56.5469 15.8906C56.1198 15.3594 55.474 15.0938 54.6094 15.0938C53.7344 15.0938 53.0781 15.3594 52.6406 15.8906C52.2031 16.4115 51.9844 17.1979 51.9844 18.25C51.9844 19.1979 52.1979 19.9479 52.625 20.5C53.0625 21.0521 53.724 21.3281 54.6094 21.3281Z" fill="white"/>
</svg>
